#!OML:ASF I:\Actors\actors\Patient Classification 2\Patient 1\Session 1\actor1.ASF
:FULLY-SPECIFIED
:DEGREES
793
root -0.73362 18.6624 5.88576 1.5447 -3.93886 -1.66136
lowerback -1.5617 1.0616 -0.427229
upperback -2.14547 1.42049 0.309431
thorax -1.34009 0.718832 0.560963
lowerneck -13.078 -2.48691 0.0209765
upperneck 21.0334 -3.91327 1.88964
head 8.76595 -1.64494 0.190365
rclavicle 3.2054e-015 1.09332e-014
rhumerus -37.415 16.7143 -92.1016
rradius 53.0998
rwrist 1.81563
rhand -3.01197 -40.7335
rfingers 7.12502
rthumb 22.7025 -69.418
lclavicle 3.2054e-015 1.09332e-014
lhumerus -34.9093 -24.0094 97.6086
lradius 51.486
lwrist 23.203
lhand -10.8903 -11.858
lfingers 7.12502
lthumb 15.1262 17.5693
rfemur 0 0 0
rtibia 0
rfoot 0 0
rtoes 0
lfemur -1.99536 -7.27854 -13.1629
ltibia 20.6388
lfoot -25.9904 17.566
ltoes -54.0299
794
root -0.731839 18.6624 5.89009 1.57534 -4.02806 -1.70483
lowerback -1.55412 1.09451 -0.37881
upperback -2.1519 1.46457 0.358413
thorax -1.3516 0.740619 0.583886
lowerneck -13.0421 -2.47602 -0.0230476
upperneck 21.0174 -3.86417 1.78942
head 8.75179 -1.6364 0.170104
rclavicle -1.23619e-014 1.78906e-015
rhumerus -38.0586 15.4403 -91.6154
rradius 52.1145
rwrist 3.22304
rhand -3.261 -40.3523
rfingers 7.12502
rthumb 22.4635 -69.0659
lclavicle -1.23619e-014 1.78906e-015
lhumerus -35.5141 -23.1892 97.5564
lradius 50.2482
lwrist 20.8939
lhand -10.8462 -12.8262
lfingers 7.12502
lthumb 15.1687 16.5978
rfemur 0 0 0
rtibia 0
rfoot 0 0
rtoes 0
lfemur -1.97244 -7.36436 -13.1482
ltibia 20.6224
lfoot -26.1028 17.6961
ltoes -53.9737
795
root -0.732175 18.662 5.89391 1.5959 -4.09433 -1.73231
lowerback -1.53609 1.10351 -0.405934
upperback -2.15299 1.47746 0.435165
thorax -1.36575 0.748154 0.67725
lowerneck -13.0564 -2.45605 -0.152872
upperneck 21.0902 -3.80078 1.75293
head 8.78028 -1.61966 0.186029
rclavicle 8.97016e-015 6.75868e-015
rhumerus -38.7766 14.4172 -91.1203
rradius 51.2808
rwrist 3.97444
rhand -3.54369 -40.0803
rfingers 7.12502
rthumb 22.1921 -68.8264
lclavicle 8.97016e-015 6.75868e-015
lhumerus -36.1362 -22.1669 97.438
lradius 49.076
lwrist 18.5226
lhand -10.6912 -13.8568
lfingers 7.12502
lthumb 15.318 15.5559
rfemur 0 0 0
rtibia 0
rfoot 0 0
rtoes 0
lfemur -1.95383 -7.43738 -13.1392
ltibia 20.6141
lfoot -26.2045 17.7799
ltoes -53.8637
796
root -0.733833 18.662 5.89724 1.62465 -4.10866 -1.7565
lowerback -1.51917 1.10842 -0.439939
upperback -2.1494 1.48477 0.493958
thorax -1.37414 0.752832 0.756156
lowerneck -13.1211 -2.45945 -0.278706
upperneck 21.2265 -3.78324 1.76171
head 8.84125 -1.61828 0.210331
rclavicle 1.28962e-014 -1.98785e-015
rhumerus -39.5285 13.4282 -90.6216
rradius 50.5881
rwrist 4.39774
rhand -3.66122 -39.7036
rfingers 7.12502
rthumb 22.0792 -68.4631
lclavicle 1.28962e-014 -1.98785e-015
lhumerus -36.699 -21.0173 97.1923
lradius 47.9418
lwrist 16.0961
lhand -10.3752 -14.6821
lfingers 7.12502
lthumb 15.6223 14.707
rfemur 0 0 0
rtibia 0
rfoot 0 0
rtoes 0
lfemur -1.96462 -7.42252 -13.1027
ltibia 20.6004
lfoot -26.2264 17.7462
ltoes -53.7874
797
root -0.733869 18.6616 5.90074 1.63362 -4.079 -1.76692
lowerback -1.47589 1.1273 -0.409994
upperback -2.14418 1.50974 0.493909
thorax -1.39266 0.764919 0.738517
lowerneck -13.1647 -2.4894 -0.318191
upperneck 21.355 -3.81871 1.75666
head 8.89447 -1.6367 0.209842
rclavicle -5.84551e-015 -7.15625e-015
rhumerus -40.3488 12.2987 -90.1163
rradius 50.0259
rwrist 4.86053
rhand -3.67507 -39.4467
rfingers 7.12502
rthumb 22.066 -68.2078
lclavicle -5.84551e-015 -7.15625e-015
lhumerus -37.2432 -19.8837 96.8476
lradius 46.838
lwrist 13.7532
lhand -10.0262 -15.4056
lfingers 7.12502
lthumb 15.9584 13.957
rfemur 0 0 0
rtibia 0
rfoot 0 0
rtoes 0
lfemur -1.96092 -7.40799 -13.0809
ltibia 20.5811
lfoot -26.2273 17.6732
ltoes -53.7642
798
root -0.732155 18.6608 5.90505 1.64569 -4.05661 -1.74049
lowerback -1.43544 1.13059 -0.404147
upperback -2.14868 1.5141 0.496425
thorax -1.41994 0.767119 0.736878
lowerneck -13.1217 -2.46794 -0.270616
upperneck 21.4089 -3.77839 1.65996
head 8.90141 -1.62395 0.174163
rclavicle 1.36354e-014 -3.37934e-015
rhumerus -41.2013 11.2301 -89.5709
rradius 49.5112
rwrist 5.3959
rhand -3.86081 -39.1379
rfingers 7.12502
rthumb 21.8876 -67.9199
lclavicle 1.36354e-014 -3.37934e-015
lhumerus -37.8416 -18.6002 96.4444
lradius 45.8586
lwrist 11.6103
lhand -9.67296 -16.0694
lfingers 7.12502
lthumb 16.2986 13.2657
rfemur 0 0 0
rtibia 0
rfoot 0 0
rtoes 0
lfemur -1.96331 -7.37096 -13.1053
ltibia 20.5703
lfoot -26.2063 17.6151
ltoes -53.7597
799
root -0.729905 18.6599 5.91008 1.63915 -4.04071 -1.70847
lowerback -1.38409 1.10645 -0.435718
upperback -2.15452 1.48229 0.524657
thorax -1.45577 0.752052 0.782238
lowerneck -12.975 -2.404 -0.201052
upperneck 21.3961 -3.68931 1.5966
head 8.86614 -1.58463 0.153466
rclavicle -1.69588e-014 1.68967e-015
rhumerus -42.0253 10.227 -88.9986
rradius 49.0113
rwrist 5.97699
rhand -4.02623 -38.7508
rfingers 7.12502
rthumb 21.7288 -67.5513
lclavicle -1.69588e-014 1.68967e-015
lhumerus -38.4913 -17.076 95.9584
lradius 45.0073
lwrist 9.80296
lhand -9.40596 -16.6597
lfingers 7.12502
lthumb 16.5556 12.6541
rfemur 0 0 0
rtibia 0
rfoot 0 0
rtoes 0
lfemur -1.95567 -7.35223 -13.1466
ltibia 20.5954
lfoot -26.2279 17.5766
ltoes -53.7378
800
root -0.719878 18.6601 5.90888 1.63904 -4.19022 -1.69808
lowerback -1.22519 1.14303 -0.327451
upperback -2.18407 1.53076 0.528511
thorax -1.57325 0.775008 0.721688
lowerneck -12.7984 -2.36229 -0.255597
upperneck 21.3788 -3.64869 1.73044
head 8.83106 -1.55744 0.214858
rclavicle 3.41661e-015 -8.84592e-015
rhumerus -42.8314 9.12139 -88.3823
rradius 48.5718
rwrist 6.59201
rhand -3.9608 -38.3734
rfingers 7.12502
rthumb 21.7916 -67.1666
lclavicle 3.41661e-015 -8.84592e-015
lhumerus -39.1608 -15.5048 95.4197
lradius 44.2707
lwrist 8.44265
lhand -9.19979 -17.0752
lfingers 7.12502
lthumb 16.7541 12.2219
rfemur 0 0 0
rtibia 0
rfoot 0 0
rtoes 0
lfemur -1.93909 -7.46395 -13.2456
ltibia 20.6274
lfoot -26.4241 17.7534
ltoes -53.6582
801
root -0.693871 18.6633 5.89606 1.78273 -4.69387 -1.6883
lowerback -0.996756 1.3188 0.04007
upperback -2.28161 1.76492 0.456816
thorax -1.79167 0.885687 0.434907
lowerneck -12.7483 -2.3419 -0.391265
upperneck 21.467 -3.63516 1.91556
head 8.85836 -1.5418 0.30184
rclavicle 4.21796e-015 6.65929e-015
rhumerus -43.6251 7.94222 -87.7441
rradius 48.2282
rwrist 7.10592
rhand -3.96475 -38.1301
rfingers 7.12502
rthumb 21.7878 -66.9237
lclavicle 4.21796e-015 6.65929e-015
lhumerus -39.7809 -13.8828 94.7764
lradius 43.6708
lwrist 7.10713
lhand -8.76005 -16.9359
lfingers 7.12502
lthumb 17.1774 12.3249
rfemur 0 0 0
rtibia 0
rfoot 0 0
rtoes 0
lfemur -2.05996 -7.71698 -13.4759
ltibia 20.667
lfoot -26.8453 18.3474
ltoes -53.4535
802
root -0.691279 18.6624 5.89875 1.76604 -4.65598 -1.63969
lowerback -0.922762 1.31134 0.0498808
upperback -2.2536 1.75486 0.436528
thorax -1.80339 0.880261 0.407256
lowerneck -12.7883 -2.33295 -0.519187
upperneck 21.6148 -3.631 2.05535
head 8.92186 -1.53327 0.369915
rclavicle -3.3607e-015 -1.11319e-014
rhumerus -44.4088 6.79898 -87.1035
rradius 47.9492
rwrist 7.5139
rhand -4.31739 -37.9731
rfingers 7.12502
rthumb 21.4492 -66.8057
lclavicle -3.3607e-015 -1.11319e-014
lhumerus -40.2979 -12.0348 93.961
lradius 43.1938
lwrist 5.58862
lhand -8.12852 -16.3071
lfingers 7.12502
lthumb 17.7852 12.8996
rfemur 0 0 0
rtibia 0
rfoot 0 0
rtoes 0
lfemur -2.06895 -7.69597 -13.5363
ltibia 20.7073
lfoot -26.8176 18.3283
ltoes -53.5137
803
root -0.688691 18.6628 5.90161 1.78915 -4.59714 -1.5762
lowerback -0.896956 1.2942 0.0373933
upperback -2.23797 1.73171 0.414757
thorax -1.80133 0.868679 0.391701
lowerneck -12.7934 -2.33464 -0.599766
upperneck 21.7243 -3.63873 2.14132
head 8.9639 -1.53299 0.411199
rclavicle -7.67185e-015 4.17448e-015
rhumerus -45.2234 5.65529 -86.3918
rradius 47.7547
rwrist 8.26275
rhand -3.94335 -37.924
rfingers 7.12502
rthumb 21.8084 -66.7153
lclavicle -7.67185e-015 4.17448e-015
lhumerus -40.8277 -10.167 93.1251
lradius 42.7913
lwrist 4.69286
lhand -7.65904 -15.7904
lfingers 7.12502
lthumb 18.2369 13.3747
rfemur 0 0 0
rtibia 0
rfoot 0 0
rtoes 0
lfemur -2.12222 -7.67952 -13.6042
ltibia 20.7419
lfoot -26.7982 18.2999
ltoes -53.5526
804
root -0.687154 18.6631 5.9058 1.81879 -4.55497 -1.56211
lowerback -0.867977 1.28003 0.039326
upperback -2.23772 1.71312 0.428122
thorax -1.81755 0.859486 0.403718
lowerneck -12.7698 -2.33129 -0.602431
upperneck 21.8182 -3.63022 2.11518
head 8.99121 -1.53116 0.403741
rclavicle 2.48481e-015 -4.87022e-015
rhumerus -46.0842 4.50619 -85.631
rradius 47.6977
rwrist 9.22908
rhand -2.69258 -38.1905
rfingers 7.12502
rthumb 23.009 -66.8371
lclavicle 2.48481e-015 -4.87022e-015
lhumerus -41.41 -8.37852 92.3481
lradius 42.3347
lwrist 4.28227
lhand -7.42312 -15.6856
lfingers 7.12502
lthumb 18.4638 13.4582
rfemur 0 0 0
rtibia 0
rfoot 0 0
rtoes 0
lfemur -2.15086 -7.65585 -13.6121
ltibia 20.7355
lfoot -26.7385 18.2742
ltoes -53.569
805
root -0.686504 18.6618 5.9122 1.7976 -4.49066 -1.58868
lowerback -0.811856 1.26142 0.0769133
upperback -2.22528 1.68908 0.462309
thorax -1.83605 0.847143 0.416683
lowerneck -12.6727 -2.31106 -0.594487
upperneck 21.8514 -3.59329 2.06735
head 8.98281 -1.51879 0.391531
rclavicle 4.30804e-014 7.25564e-015
rhumerus -46.9536 3.37674 -84.8873
rradius 47.6333
rwrist 9.88683
rhand -2.08051 -38.2235
rfingers 7.12502
rthumb 23.5962 -66.7958
lclavicle 4.30804e-014 7.25564e-015
lhumerus -42.0127 -6.48793 91.5112
lradius 41.8192
lwrist 3.56593
lhand -7.33839 -16.1042
lfingers 7.12502
lthumb 18.5453 13.0317
rfemur 0 0 0
rtibia 0
rfoot 0 0
rtoes 0
lfemur -2.11264 -7.69478 -13.5821
ltibia 20.7254
lfoot -26.731 18.2338
ltoes -53.5423
806
root -0.686386 18.6605 5.91783 1.7774 -4.43037 -1.58618
lowerback -0.739927 1.2431 0.0985033
upperback -2.22908 1.66516 0.468251
thorax -1.87971 0.834863 0.409106
lowerneck -12.4671 -2.29627 -0.694257
upperneck 21.8241 -3.58906 2.23629
head 8.94049 -1.50923 0.4686
rclavicle -3.88873e-015 7.15625e-015
rhumerus -47.7982 2.19445 -84.1711
rradius 47.4541
rwrist 10.4657
rhand -2.83754 -37.7616
rfingers 7.12502
rthumb 22.8699 -66.4256
lclavicle -3.88873e-015 7.15625e-015
lhumerus -42.7219 -4.62846 90.5914
lradius 41.4438
lwrist 2.71642
lhand -7.38421 -16.6414
lfingers 7.12502
lthumb 18.5013 12.4988
rfemur 0 0 0
rtibia 0
rfoot 0 0
rtoes 0
lfemur -2.07563 -7.77532 -13.5891
ltibia 20.7184
lfoot -26.803 18.1952
ltoes -53.4725
807
root -0.686519 18.661 5.92051 1.81996 -4.44825 -1.58564
lowerback -0.684382 1.24508 0.116569
upperback -2.25081 1.66827 0.468596
thorax -1.93273 0.836104 0.397681
lowerneck -12.3286 -2.3105 -0.94709
upperneck 21.8649 -3.63625 2.58411
head 8.94159 -1.51619 0.625047
rclavicle 1.62755e-015 2.08724e-015
rhumerus -48.5669 1.02529 -83.455
rradius 47.1824
rwrist 11.1886
rhand -4.44947 -37.2801
rfingers 7.12502
rthumb 21.3223 -66.1271
lclavicle 1.62755e-015 2.08724e-015
lhumerus -43.4464 -2.94822 89.6878
lradius 41.08
lwrist 2.14873
lhand -7.6281 -17.389
lfingers 7.12502
lthumb 18.2666 11.7733
rfemur 0 0 0
rtibia 0
rfoot 0 0
rtoes 0
lfemur -2.10574 -7.79228 -13.5906
ltibia 20.7113
lfoot -26.8422 18.2192
ltoes -53.4495
